<svg width="32" height="30" viewBox="0 0 32 30" fill="none" xmlns="http://www.w3.org/2000/svg">
<path fill-rule="evenodd" clip-rule="evenodd" d="M26.8355 8.37987C27.4294 9.75816 27.4294 11.5054 27.4294 15C27.4294 18.4946 27.4294 20.2418 26.8355 21.6201C26.0436 23.4578 24.5247 24.9179 22.6129 25.6791C21.179 26.25 19.3613 26.25 15.7258 26.25H11.8246C8.14651 26.25 6.30746 26.25 5.16482 25.1517C4.02219 24.0533 4.02219 22.2855 4.02219 18.75V15C4.02219 11.5054 4.02219 9.75816 4.61611 8.37987C5.40801 6.54216 6.92694 5.08211 8.83875 4.3209C10.2726 3.75 12.0903 3.75 15.7258 3.75C19.3613 3.75 21.179 3.75 22.6129 4.3209C24.5247 5.08211 26.0436 6.54216 26.8355 8.37987ZM10.8246 12.4996C10.8246 11.9473 11.2723 11.4996 11.8246 11.4996H19.627C20.1793 11.4996 20.627 11.9473 20.627 12.4996C20.627 13.0519 20.1793 13.4996 19.627 13.4996H11.8246C11.2723 13.4996 10.8246 13.0519 10.8246 12.4996ZM10.8246 17.4996C10.8246 16.9473 11.2723 16.4996 11.8246 16.4996H15.7258C16.2781 16.4996 16.7258 16.9473 16.7258 17.4996C16.7258 18.0519 16.2781 18.4996 15.7258 18.4996H11.8246C11.2723 18.4996 10.8246 18.0519 10.8246 17.4996Z" fill="#222222"/>
</svg>
