<svg width="33" height="30" viewBox="0 0 33 30" fill="none" xmlns="http://www.w3.org/2000/svg">
<path fill-rule="evenodd" clip-rule="evenodd" d="M17.8358 8.78561L20.8863 6.01244C21.9684 5.02872 22.5094 4.53687 23.1539 4.46518C23.3008 4.44883 23.4491 4.44883 23.5961 4.46518C24.2405 4.53687 24.7816 5.02872 25.8637 6.01244C27.1505 7.18231 27.7939 7.76724 27.8861 8.5005C27.907 8.66618 27.907 8.83381 27.8861 8.99949C27.7939 9.73275 27.1505 10.3177 25.8637 11.4875L25.8637 11.4876L23.3688 13.7556C21.0952 12.6295 19.1854 10.9043 17.8358 8.78561ZM16.3369 10.1483L6.44224 19.1434C5.9749 19.5682 5.74122 19.7807 5.58557 20.0496C5.42992 20.3184 5.36206 20.6269 5.22636 21.2437L4.2864 25.5162C4.21341 25.848 4.17691 26.0139 4.26986 26.1103C4.3628 26.2068 4.52992 26.1764 4.86416 26.1156L9.87265 25.205C10.4326 25.1032 10.7126 25.0522 10.9643 24.9279C11.2161 24.8035 11.4267 24.6121 11.8478 24.2293L11.8478 24.2292L21.7946 15.1867C19.5949 13.9595 17.7262 12.2282 16.3369 10.1483Z" fill="#222222"/>
</svg>
