<svg width="33" height="30" viewBox="0 0 33 30" fill="none" xmlns="http://www.w3.org/2000/svg">
<ellipse cx="26.125" cy="7.5" rx="2.75" ry="2.5" fill="#222222"/>
<path fill-rule="evenodd" clip-rule="evenodd" d="M16.9833 21.875H5.74249C4.77167 21.875 4.20268 20.7822 4.75942 19.9868L12.0796 9.5294C12.5574 8.84694 13.5681 8.84694 14.0458 9.5294L18.9008 16.4651L21.762 12.997C22.2419 12.4152 23.1333 12.4152 23.6133 12.997L29.3176 19.9113C29.9633 20.694 29.4066 21.875 28.3919 21.875H20.3829H16.9833Z" fill="#7E869E" fill-opacity="0.25"/>
<path d="M4.75942 19.9868L5.16903 20.2736L4.75942 19.9868ZM12.0796 9.5294L12.4892 9.81613L12.0796 9.5294ZM14.0458 9.5294L13.6362 9.81613V9.81613L14.0458 9.5294ZM18.9008 16.4651L18.4912 16.7518C18.5807 16.8798 18.7249 16.9585 18.881 16.9647C19.0371 16.9709 19.1871 16.9038 19.2865 16.7833L18.9008 16.4651ZM21.762 12.997L21.3763 12.6788H21.3763L21.762 12.997ZM23.6133 12.997L23.2276 13.3152V13.3152L23.6133 12.997ZM29.3176 19.9113L28.9319 20.2295L28.9319 20.2295L29.3176 19.9113ZM5.74249 22.375H16.9833V21.375H5.74249V22.375ZM4.3498 19.7001C3.56109 20.8268 4.36715 22.375 5.74249 22.375V21.375C5.17618 21.375 4.84427 20.7375 5.16903 20.2736L4.3498 19.7001ZM11.67 9.24267L4.3498 19.7001L5.16903 20.2736L12.4892 9.81613L11.67 9.24267ZM14.4554 9.24267C13.7786 8.27585 12.3468 8.27585 11.67 9.24267L12.4892 9.81613C12.7679 9.41803 13.3575 9.41803 13.6362 9.81613L14.4554 9.24267ZM19.3104 16.1784L14.4554 9.24267L13.6362 9.81613L18.4912 16.7518L19.3104 16.1784ZM21.3763 12.6788L18.5151 16.1469L19.2865 16.7833L22.1476 13.3152L21.3763 12.6788ZM23.9989 12.6788C23.319 11.8546 22.0562 11.8546 21.3763 12.6788L22.1476 13.3152C22.4276 12.9758 22.9476 12.9758 23.2276 13.3152L23.9989 12.6788ZM29.7033 19.5931L23.9989 12.6788L23.2276 13.3152L28.9319 20.2295L29.7033 19.5931ZM28.3919 22.375C29.8293 22.375 30.618 20.7019 29.7033 19.5931L28.9319 20.2295C29.3086 20.6861 28.9838 21.375 28.3919 21.375V22.375ZM20.3829 22.375H28.3919V21.375H20.3829V22.375ZM16.9833 22.375H20.3829V21.375H16.9833V22.375Z" fill="#222222"/>
</svg>
