<svg width="33" height="30" viewBox="0 0 33 30" fill="none" xmlns="http://www.w3.org/2000/svg">
<path fill-rule="evenodd" clip-rule="evenodd" d="M3.92157 3.67158C2.75 4.84315 2.75 6.72877 2.75 10.5V19.5C2.75 23.2712 2.75 25.1569 3.92157 26.3284C5.09315 27.5 6.97876 27.5 10.75 27.5H22.25C26.0212 27.5 27.9069 27.5 29.0784 26.3284C30.25 25.1569 30.25 23.2712 30.25 19.5V10.5C30.25 7.34269 30.25 5.50704 29.5625 4.30556V21.25C29.0541 21.25 28.7999 21.25 28.5552 21.2197C27.9014 21.1388 27.2777 20.8977 26.7396 20.5178C26.5382 20.3756 26.3501 20.2046 25.9739 19.8626L24.6907 18.6961C23.4124 17.534 22.7732 16.9529 22 16.9529C21.2268 16.9529 20.5876 17.534 19.3093 18.6961L18.5012 19.4308C17.5854 20.2633 17.1275 20.6796 16.6329 20.5813C16.1384 20.483 15.8745 19.9232 15.3468 18.8037L14.6815 17.3925C13.626 15.1536 13.0982 14.0341 12.1091 13.8375C11.12 13.6409 10.2043 14.4734 8.37269 16.1385L4.8125 19.375V3.05527C4.47251 3.21218 4.17971 3.41344 3.92157 3.67158Z" fill="#222222"/>
<path d="M3.75 10.5C3.75 8.58611 3.75212 7.25129 3.88753 6.24416C4.01907 5.26579 4.25966 4.7477 4.62868 4.37868C4.9977 4.00966 5.51579 3.76907 6.49416 3.63753C7.50129 3.50212 8.83611 3.5 10.75 3.5H22.25C24.1639 3.5 25.4987 3.50212 26.5058 3.63753C27.4842 3.76907 28.0023 4.00966 28.3713 4.37868C28.7403 4.7477 28.9809 5.26579 29.1125 6.24416C29.2479 7.25129 29.25 8.58611 29.25 10.5V19.5C29.25 21.4139 29.2479 22.7487 29.1125 23.7558C28.9809 24.7342 28.7403 25.2523 28.3713 25.6213C28.0023 25.9903 27.4842 26.2309 26.5058 26.3625C25.4987 26.4979 24.1639 26.5 22.25 26.5H10.75C8.83611 26.5 7.50129 26.4979 6.49416 26.3625C5.51579 26.2309 4.9977 25.9903 4.62868 25.6213C4.25966 25.2523 4.01907 24.7342 3.88753 23.7558C3.75212 22.7487 3.75 21.4139 3.75 19.5V10.5Z" stroke="#222222" stroke-width="2"/>
<ellipse cx="20.625" cy="11.25" rx="2.75" ry="2.5" fill="#222222"/>
</svg>
