<svg width="30" height="30" viewBox="0 0 30 30" fill="none" xmlns="http://www.w3.org/2000/svg">
<path d="M13.125 15H15V20H17.5M15 10H15.0125M16.9535 26.0791C18.4085 25.8225 19.7986 25.2819 21.0446 24.4882C22.2906 23.6944 23.3681 22.6629 24.2155 21.4527C25.0628 20.2425 25.6636 18.8773 25.9833 17.4349C26.3031 15.9926 26.3356 14.5014 26.0791 13.0465C25.8225 11.5915 25.2819 10.2014 24.4882 8.95538C23.6944 7.70938 22.6629 6.63192 21.4527 5.78454C20.2425 4.93715 18.8773 4.33643 17.4349 4.01667C15.9926 3.69691 14.5014 3.66437 13.0465 3.92091C11.5915 4.17746 10.2014 4.71806 8.95538 5.51185C7.70938 6.30564 6.63192 7.33708 5.78454 8.54727C4.93715 9.75746 4.33643 11.1227 4.01667 12.5651C3.69691 14.0074 3.66437 15.4986 3.92091 16.9535C4.17746 18.4085 4.71806 19.7986 5.51185 21.0446C6.30564 22.2906 7.33708 23.3681 8.54727 24.2155C9.75746 25.0628 11.1227 25.6636 12.5651 25.9833C14.0074 26.3031 15.4986 26.3356 16.9535 26.0791Z" stroke="#33363F" stroke-width="2" stroke-linecap="round" stroke-linejoin="round"/>
</svg>
