<svg width="32" height="24" viewBox="0 0 32 24" fill="none" xmlns="http://www.w3.org/2000/svg">
<path fill-rule="evenodd" clip-rule="evenodd" d="M4.02219 7C4.02219 5.59987 4.02219 4.8998 4.29467 4.36502C4.53435 3.89462 4.9168 3.51217 5.38721 3.27248C5.92199 3 6.62206 3 8.02219 3H23.4294C24.8296 3 25.5296 3 26.0644 3.27248C26.5348 3.51217 26.9173 3.89462 27.157 4.36502C27.4294 4.8998 27.4294 5.59987 27.4294 7V17C27.4294 18.4001 27.4294 19.1002 27.157 19.635C26.9173 20.1054 26.5348 20.4878 26.0644 20.7275C25.5296 21 24.8296 21 23.4294 21H8.02219H8.02216C6.62205 21 5.92199 21 5.38721 20.7275C4.9168 20.4878 4.53435 20.1054 4.29467 19.635C4.02219 19.1002 4.02219 18.4001 4.02219 17V7ZM14.2034 11C13.6679 9.83481 12.2228 9 10.5242 9C8.36962 9 6.62299 10.3431 6.62299 12C6.62299 13.6569 8.36962 15 10.5242 15C12.2228 15 13.6679 14.1652 14.2034 13H17.3266V14C17.3266 14.5523 17.7743 15 18.3266 15C18.8789 15 19.3266 14.5523 19.3266 14V13H21.2278V14C21.2278 14.5523 21.6755 15 22.2278 15C22.7801 15 23.2278 14.5523 23.2278 14V12.15C23.2278 11.5149 22.713 11 22.0778 11H18.3266H14.2034ZM12.2113 11.5931C12.1558 11.7174 12.125 11.8551 12.125 12C12.125 12.1449 12.1558 12.2826 12.2113 12.4069C12.1702 12.4482 12.1215 12.4914 12.0636 12.5359C11.7363 12.7876 11.1987 13 10.5242 13C9.84968 13 9.31208 12.7876 8.98481 12.5359C8.65969 12.2859 8.62299 12.0791 8.62299 12C8.62299 11.9209 8.65969 11.7141 8.98481 11.4641C9.31208 11.2124 9.84968 11 10.5242 11C11.1987 11 11.7363 11.2124 12.0636 11.4641C12.1215 11.5086 12.1702 11.5518 12.2113 11.5931Z" fill="#222222"/>
</svg>
