<svg width="32" height="30" viewBox="0 0 32 30" fill="none" xmlns="http://www.w3.org/2000/svg">
<g filter="url(#filter0_d_1_123)">
<path d="M20.9274 8V8C20.9274 5.23858 18.6889 3 15.9274 3H15.5242C12.7628 3 10.5242 5.23858 10.5242 8V8" stroke="#222222" stroke-width="2" stroke-linecap="round"/>
<path fill-rule="evenodd" clip-rule="evenodd" d="M4.90087 7.87868C4.02219 8.75736 4.02219 10.1716 4.02219 13V14C4.02219 17.7712 4.02219 19.6569 5.19376 20.8284C6.36533 22 8.25095 22 12.0222 22H19.4294C23.2007 22 25.0863 22 26.2579 20.8284C27.4294 19.6569 27.4294 17.7712 27.4294 14V13C27.4294 10.1716 27.4294 8.75736 26.5508 7.87868C25.6721 7 24.2579 7 21.4294 7H10.0222C7.19376 7 5.77955 7 4.90087 7.87868ZM17.2652 14.5359C17.5903 14.2859 17.627 14.0791 17.627 14C17.627 13.9209 17.5903 13.7141 17.2652 13.4641C16.9379 13.2124 16.4003 13 15.7258 13C15.0513 13 14.5137 13.2124 14.1864 13.4641C13.8613 13.7141 13.8246 13.9209 13.8246 14C13.8246 14.0791 13.8613 14.2859 14.1864 14.5359C14.5137 14.7876 15.0513 15 15.7258 15C16.4003 15 16.9379 14.7876 17.2652 14.5359ZM19.627 14C19.627 15.391 18.3959 16.5609 16.7258 16.9005V19H14.7258V16.9005C13.0557 16.5609 11.8246 15.391 11.8246 14C11.8246 12.3431 13.5712 11 15.7258 11C17.8804 11 19.627 12.3431 19.627 14Z" fill="#222222"/>
</g>
<defs>
<filter id="filter0_d_1_123" x="-3.87903" y="0" width="39.2097" height="32" filterUnits="userSpaceOnUse" color-interpolation-filters="sRGB">
<feFlood flood-opacity="0" result="BackgroundImageFix"/>
<feColorMatrix in="SourceAlpha" type="matrix" values="0 0 0 0 0 0 0 0 0 0 0 0 0 0 0 0 0 0 127 0" result="hardAlpha"/>
<feOffset dy="4"/>
<feGaussianBlur stdDeviation="2"/>
<feComposite in2="hardAlpha" operator="out"/>
<feColorMatrix type="matrix" values="0 0 0 0 0 0 0 0 0 0 0 0 0 0 0 0 0 0 0.25 0"/>
<feBlend mode="normal" in2="BackgroundImageFix" result="effect1_dropShadow_1_123"/>
<feBlend mode="normal" in="SourceGraphic" in2="effect1_dropShadow_1_123" result="shape"/>
</filter>
</defs>
</svg>
