<svg width="27" height="34" viewBox="0 0 27 34" fill="none" xmlns="http://www.w3.org/2000/svg">
<path d="M12.2844 27.9619C13.6246 27.9619 14.7457 26.7516 15.0032 25.1495H9.56567C9.82325 26.7516 10.9444 27.9619 12.2844 27.9619Z" fill="#292B5C"/>
<path d="M17.4733 16.7114C17.4703 16.7114 17.4673 16.7122 17.4643 16.7122C14.6087 16.7122 12.2844 13.7685 12.2844 10.1499C12.2844 9.15519 12.465 8.21485 12.7795 7.36927C12.6167 7.3497 12.4516 7.33751 12.2844 7.33751C9.42368 7.33751 7.10452 10.2754 7.10452 13.8998V16.5134C7.10452 18.3687 6.46294 20.12 5.33737 21.3255C4.96218 21.7315 4.79565 22.3783 4.93034 23.0093C5.08724 23.7433 5.65999 24.2121 6.26091 24.2121H18.3043C18.9347 24.2121 19.529 23.6945 19.6569 22.9118C19.7561 22.3062 19.5859 21.7014 19.2152 21.3068C18.1392 20.1641 17.5169 18.4849 17.4733 16.7114Z" fill="#292B5C"/>
<path d="M21.1643 10.1499C21.1643 12.7387 19.5079 14.8372 17.4643 14.8372C15.4209 14.8372 13.7644 12.7387 13.7644 10.1499C13.7644 7.56118 15.4209 5.4625 17.4643 5.4625C19.5079 5.4625 21.1643 7.56118 21.1643 10.1499Z" fill="#5468FF"/>
</svg>
