<svg width="25" height="25" viewBox="0 0 25 25" fill="none" xmlns="http://www.w3.org/2000/svg">
<path fill-rule="evenodd" clip-rule="evenodd" d="M21.8751 6.25H3.12506V9.375C3.20244 9.375 3.24112 9.375 3.27383 9.37607C4.32706 9.41055 5.17284 10.2563 5.20732 11.3096C5.20839 11.3423 5.20839 11.381 5.20839 11.4583V15.875C5.20839 18.7034 5.20839 20.1176 6.08707 20.9963C6.96575 21.875 8.37997 21.875 11.2084 21.875H13.7917C16.6202 21.875 18.0344 21.875 18.913 20.9963C19.7917 20.1176 19.7917 18.7034 19.7917 15.875V11.4583C19.7917 11.381 19.7917 11.3423 19.7928 11.3096C19.8273 10.2563 20.6731 9.41055 21.7263 9.37607C21.759 9.375 21.7977 9.375 21.8751 9.375V6.25ZM10.8959 11.4583C10.8959 10.906 10.4482 10.4583 9.89589 10.4583C9.34361 10.4583 8.89589 10.906 8.89589 11.4583V16.6667C8.89589 17.219 9.34361 17.6667 9.89589 17.6667C10.4482 17.6667 10.8959 17.219 10.8959 16.6667V11.4583ZM16.1042 11.4583C16.1042 10.906 15.6565 10.4583 15.1042 10.4583C14.5519 10.4583 14.1042 10.906 14.1042 11.4583V16.6667C14.1042 17.219 14.5519 17.6667 15.1042 17.6667C15.6565 17.6667 16.1042 17.219 16.1042 16.6667V11.4583Z" fill="#222222"/>
<path d="M10.4876 3.51103C10.6063 3.40029 10.8679 3.30243 11.2317 3.23263C11.5956 3.16283 12.0414 3.125 12.5 3.125C12.9586 3.125 13.4044 3.16283 13.7682 3.23263C14.1321 3.30242 14.3936 3.40029 14.5123 3.51103" stroke="#222222" stroke-width="2" stroke-linecap="round"/>
</svg>
