<svg width="25" height="25" viewBox="0 0 25 25" fill="none" xmlns="http://www.w3.org/2000/svg">
<path d="M12.5 5.20833L13.2071 4.50122L12.5 3.79411L11.7929 4.50122L12.5 5.20833ZM11.5 17.7083C11.5 18.2606 11.9477 18.7083 12.5 18.7083C13.0523 18.7083 13.5 18.2606 13.5 17.7083L11.5 17.7083ZM19.4571 10.7512L13.2071 4.50122L11.7929 5.91543L18.0429 12.1654L19.4571 10.7512ZM11.7929 4.50122L5.54289 10.7512L6.95711 12.1654L13.2071 5.91543L11.7929 4.50122ZM11.5 5.20833L11.5 17.7083L13.5 17.7083L13.5 5.20833L11.5 5.20833Z" fill="#33363F"/>
<path d="M5.20831 21.875L19.7916 21.875" stroke="#33363F" stroke-width="2"/>
</svg>
