<svg width="27" height="24" viewBox="0 0 27 24" fill="none" xmlns="http://www.w3.org/2000/svg">
<circle cx="12.121" cy="12" r="8" stroke="#33363F" stroke-width="2"/>
<path d="M18.693 7.20637C17.9692 8.05353 17.0078 8.74862 15.8882 9.23422C14.7685 9.71983 13.5227 9.98201 12.2536 9.99911C10.9846 10.0162 9.72875 9.78773 8.58987 9.33256C7.45099 8.87739 6.46174 8.20858 5.70385 7.38139" stroke="#33363F" stroke-width="2"/>
<path d="M18.693 16.7936C17.9692 15.9465 17.0078 15.2514 15.8882 14.7658C14.7685 14.2802 13.5227 14.018 12.2536 14.0009C10.9846 13.9838 9.72875 14.2123 8.58987 14.6674C7.45099 15.1226 6.46174 15.7914 5.70385 16.6186" stroke="#33363F" stroke-width="2"/>
<path d="M12.121 4V20" stroke="#33363F" stroke-width="2"/>
</svg>
